<?xml version="1.0" encoding="UTF-8" standalone="no"?>
<!-- Created with Inkscape (http://www.inkscape.org/) -->

<svg
   width="210mm"
   height="297mm"
   viewBox="0 0 210 297"
   version="1.1"
   id="svg1"
   xml:space="preserve"
   inkscape:version="1.3.2 (091e20e, 2023-11-25)"
   sodipodi:docname="darkmode.svg"
   xmlns:inkscape="http://www.inkscape.org/namespaces/inkscape"
   xmlns:sodipodi="http://sodipodi.sourceforge.net/DTD/sodipodi-0.dtd"
   xmlns="http://www.w3.org/2000/svg"
   xmlns:svg="http://www.w3.org/2000/svg"><sodipodi:namedview
     id="namedview1"
     pagecolor="#ffffff"
     bordercolor="#000000"
     borderopacity="0.25"
     inkscape:showpageshadow="2"
     inkscape:pageopacity="0.0"
     inkscape:pagecheckerboard="0"
     inkscape:deskcolor="#d1d1d1"
     inkscape:document-units="mm"
     inkscape:zoom="0.22876819"
     inkscape:cx="-137.69397"
     inkscape:cy="557.33273"
     inkscape:window-width="1472"
     inkscape:window-height="890"
     inkscape:window-x="0"
     inkscape:window-y="37"
     inkscape:window-maximized="0"
     inkscape:current-layer="layer1" /><defs
     id="defs1" /><g
     inkscape:label="Layer 1"
     inkscape:groupmode="layer"
     id="layer1"><path
       id="path2"
       style="opacity:1;fill:#b3bbd8;fill-opacity:0;stroke-width:5.4;stroke-dasharray:none"
       d="M 168.69215,178.58794 C 140.05949,190.38002 107.94148,189.3088 86.022302,167.4357 64.171745,145.54186 63.078339,113.46277 74.819845,84.845936 c 2.36414,-5.76195 -10.426383,6.815032 -14.845902,11.203331 -26.905887,26.905863 -26.905887,70.528933 5e-6,97.434793 26.905867,26.90586 70.528892,26.90588 97.434772,-4e-5 4.41994,-4.43014 17.06988,-17.27917 11.28343,-14.89608 z"
       sodipodi:nodetypes="scscccs" /><path
       sodipodi:type="star"
       style="opacity:1;fill-opacity:0;fill:none;stroke-width:6.12882406;stroke-dasharray:none"
       id="path3"
       inkscape:flatsided="false"
       sodipodi:sides="5"
       sodipodi:cx="120.44681"
       sodipodi:cy="92.240913"
       sodipodi:r1="39.618725"
       sodipodi:r2="19.809362"
       sodipodi:arg1="0.52391935"
       sodipodi:arg2="1.1522379"
       inkscape:rounded="0"
       inkscape:randomized="0"
       d="m 154.75128,112.06127 -26.25308,-1.72102 -16.30101,20.65098 -6.47586,-25.49999 -24.677537,-9.121674 22.250777,-14.038833 1.04945,-26.28849 20.2276,16.823511 25.32614,-7.125502 -9.74944,24.436335 z"
       inkscape:transform-center-x="2.7952066"
       inkscape:transform-center-y="0.56109237"
       transform="matrix(0.22804095,0.8510604,-0.8510604,0.22804095,194.61849,-10.259799)" /></g></svg>
